<mxfile host="app.diagrams.net" modified="2021-09-09T10:34:18.778Z" agent="5.0 (Windows NT 10.0; Win64; x64) AppleWebKit/537.36 (KHTML, like Gecko) Chrome/93.0.4577.63 Safari/537.36" etag="mZI4atZ4-BLfXgLl6qht" version="15.1.1" type="github">
  <diagram id="kUqus9kBQ4cJgLYKLgxv" name="Page-1">
    <mxGraphModel dx="1165" dy="614" grid="1" gridSize="10" guides="1" tooltips="1" connect="1" arrows="1" fold="1" page="1" pageScale="1" pageWidth="4681" pageHeight="3300" math="0" shadow="0">
      <root>
        <mxCell id="0" />
        <mxCell id="1" parent="0" />
        <mxCell id="D0Ue_TvP8GF1oFJSITFM-1" value="&lt;h1&gt;&lt;font face=&quot;Courier New&quot; size=&quot;1&quot;&gt;&lt;i style=&quot;font-size: 40px&quot;&gt;TCE HOSTEL SERVICE&lt;/i&gt;&lt;/font&gt;&lt;/h1&gt;" style="rounded=1;whiteSpace=wrap;html=1;fillColor=#fff2cc;strokeColor=#d6b656;" parent="1" vertex="1">
          <mxGeometry x="1420" y="80" width="565" height="110" as="geometry" />
        </mxCell>
        <mxCell id="D0Ue_TvP8GF1oFJSITFM-10" value="" style="group" parent="1" vertex="1" connectable="0">
          <mxGeometry x="460" y="480" width="260" height="2470" as="geometry" />
        </mxCell>
        <mxCell id="D0Ue_TvP8GF1oFJSITFM-6" value="&lt;font face=&quot;Courier New&quot; style=&quot;font-size: 36px&quot;&gt;&lt;b&gt;HOME PAGE&lt;/b&gt;&lt;/font&gt;" style="rounded=1;whiteSpace=wrap;html=1;fillColor=#e1d5e7;strokeColor=#9673a6;" parent="D0Ue_TvP8GF1oFJSITFM-10" vertex="1">
          <mxGeometry width="260" height="106.8108108108108" as="geometry" />
        </mxCell>
        <mxCell id="D0Ue_TvP8GF1oFJSITFM-9" value="" style="endArrow=none;html=1;strokeWidth=8;strokeColor=#666666;" parent="D0Ue_TvP8GF1oFJSITFM-10" target="D0Ue_TvP8GF1oFJSITFM-6" edge="1">
          <mxGeometry width="50" height="50" relative="1" as="geometry">
            <mxPoint x="130" y="2470" as="sourcePoint" />
            <mxPoint x="130" y="133.51351351351352" as="targetPoint" />
          </mxGeometry>
        </mxCell>
        <mxCell id="D0Ue_TvP8GF1oFJSITFM-11" value="" style="group" parent="1" vertex="1" connectable="0">
          <mxGeometry x="840" y="480" width="260" height="2470" as="geometry" />
        </mxCell>
        <mxCell id="D0Ue_TvP8GF1oFJSITFM-12" value="&lt;font face=&quot;Courier New&quot;&gt;&lt;span style=&quot;font-size: 36px&quot;&gt;&lt;b&gt;LOGIN PAGE&lt;/b&gt;&lt;/span&gt;&lt;/font&gt;" style="rounded=1;whiteSpace=wrap;html=1;fillColor=#b0e3e6;strokeColor=#0e8088;" parent="D0Ue_TvP8GF1oFJSITFM-11" vertex="1">
          <mxGeometry width="260" height="106.8108108108108" as="geometry" />
        </mxCell>
        <mxCell id="D0Ue_TvP8GF1oFJSITFM-13" value="" style="endArrow=none;html=1;strokeWidth=8;strokeColor=#666666;" parent="D0Ue_TvP8GF1oFJSITFM-11" target="D0Ue_TvP8GF1oFJSITFM-12" edge="1">
          <mxGeometry width="50" height="50" relative="1" as="geometry">
            <mxPoint x="130" y="2470" as="sourcePoint" />
            <mxPoint x="130" y="133.51351351351352" as="targetPoint" />
          </mxGeometry>
        </mxCell>
        <mxCell id="D0Ue_TvP8GF1oFJSITFM-14" value="" style="group" parent="1" vertex="1" connectable="0">
          <mxGeometry x="1240" y="480" width="260" height="2480" as="geometry" />
        </mxCell>
        <mxCell id="D0Ue_TvP8GF1oFJSITFM-15" value="&lt;font face=&quot;Courier New&quot;&gt;&lt;span style=&quot;font-size: 36px&quot;&gt;&lt;b&gt;ADMISSION&lt;/b&gt;&lt;/span&gt;&lt;/font&gt;" style="rounded=1;whiteSpace=wrap;html=1;fillColor=#bac8d3;strokeColor=#23445d;" parent="D0Ue_TvP8GF1oFJSITFM-14" vertex="1">
          <mxGeometry width="260" height="107.24324324324323" as="geometry" />
        </mxCell>
        <mxCell id="D0Ue_TvP8GF1oFJSITFM-16" value="" style="endArrow=none;html=1;strokeWidth=8;strokeColor=#666666;" parent="D0Ue_TvP8GF1oFJSITFM-14" target="D0Ue_TvP8GF1oFJSITFM-15" edge="1">
          <mxGeometry width="50" height="50" relative="1" as="geometry">
            <mxPoint x="130" y="2480" as="sourcePoint" />
            <mxPoint x="130" y="134.05405405405403" as="targetPoint" />
          </mxGeometry>
        </mxCell>
        <mxCell id="D0Ue_TvP8GF1oFJSITFM-17" value="" style="group" parent="1" vertex="1" connectable="0">
          <mxGeometry x="1630" y="480" width="260" height="2480" as="geometry" />
        </mxCell>
        <mxCell id="D0Ue_TvP8GF1oFJSITFM-18" value="&lt;font face=&quot;Courier New&quot;&gt;&lt;span style=&quot;font-size: 36px&quot;&gt;&lt;b&gt;SEARCH STUDENT&lt;/b&gt;&lt;/span&gt;&lt;/font&gt;" style="rounded=1;whiteSpace=wrap;html=1;fillColor=#cdeb8b;strokeColor=#36393d;" parent="D0Ue_TvP8GF1oFJSITFM-17" vertex="1">
          <mxGeometry y="-26.666666666666668" width="260" height="133.90666666666667" as="geometry" />
        </mxCell>
        <mxCell id="D0Ue_TvP8GF1oFJSITFM-19" value="" style="endArrow=none;html=1;strokeWidth=8;strokeColor=#666666;" parent="D0Ue_TvP8GF1oFJSITFM-17" target="D0Ue_TvP8GF1oFJSITFM-18" edge="1">
          <mxGeometry width="50" height="50" relative="1" as="geometry">
            <mxPoint x="130" y="2480" as="sourcePoint" />
            <mxPoint x="130" y="134.05405405405406" as="targetPoint" />
          </mxGeometry>
        </mxCell>
        <mxCell id="D0Ue_TvP8GF1oFJSITFM-20" value="" style="group" parent="1" vertex="1" connectable="0">
          <mxGeometry x="2000" y="480" width="260" height="2480" as="geometry" />
        </mxCell>
        <mxCell id="D0Ue_TvP8GF1oFJSITFM-21" value="&lt;font face=&quot;Courier New&quot;&gt;&lt;span style=&quot;font-size: 36px&quot;&gt;&lt;b&gt;POST INFO&lt;/b&gt;&lt;/span&gt;&lt;/font&gt;" style="rounded=1;whiteSpace=wrap;html=1;fillColor=#ffff88;strokeColor=#36393d;" parent="D0Ue_TvP8GF1oFJSITFM-20" vertex="1">
          <mxGeometry width="260" height="107.24324324324324" as="geometry" />
        </mxCell>
        <mxCell id="D0Ue_TvP8GF1oFJSITFM-22" value="" style="endArrow=none;html=1;strokeWidth=8;strokeColor=#666666;" parent="D0Ue_TvP8GF1oFJSITFM-20" target="D0Ue_TvP8GF1oFJSITFM-21" edge="1">
          <mxGeometry width="50" height="50" relative="1" as="geometry">
            <mxPoint x="130" y="2480" as="sourcePoint" />
            <mxPoint x="130" y="134.05405405405406" as="targetPoint" />
          </mxGeometry>
        </mxCell>
        <mxCell id="D0Ue_TvP8GF1oFJSITFM-23" value="" style="group" parent="1" vertex="1" connectable="0">
          <mxGeometry x="2360" y="480" width="350" height="2550" as="geometry" />
        </mxCell>
        <mxCell id="D0Ue_TvP8GF1oFJSITFM-24" value="&lt;font face=&quot;Courier New&quot;&gt;&lt;span style=&quot;font-size: 36px&quot;&gt;&lt;b&gt;ACCEPT/DECLINE LEAVE REQUEST&lt;/b&gt;&lt;/span&gt;&lt;/font&gt;" style="rounded=1;whiteSpace=wrap;html=1;fillColor=#ffcc99;strokeColor=#36393d;" parent="D0Ue_TvP8GF1oFJSITFM-23" vertex="1">
          <mxGeometry y="-97.54098360655738" width="350" height="207.80409836065576" as="geometry" />
        </mxCell>
        <mxCell id="D0Ue_TvP8GF1oFJSITFM-25" value="" style="endArrow=none;html=1;strokeWidth=8;strokeColor=#666666;" parent="D0Ue_TvP8GF1oFJSITFM-23" target="D0Ue_TvP8GF1oFJSITFM-24" edge="1">
          <mxGeometry width="50" height="50" relative="1" as="geometry">
            <mxPoint x="175" y="2480.3278688524597" as="sourcePoint" />
            <mxPoint x="130" y="137.83783783783787" as="targetPoint" />
          </mxGeometry>
        </mxCell>
        <mxCell id="D0Ue_TvP8GF1oFJSITFM-26" value="" style="group" parent="1" vertex="1" connectable="0">
          <mxGeometry x="2830" y="480" width="260" height="2480" as="geometry" />
        </mxCell>
        <mxCell id="D0Ue_TvP8GF1oFJSITFM-27" value="&lt;font face=&quot;Courier New&quot;&gt;&lt;span style=&quot;font-size: 36px&quot;&gt;&lt;b&gt;STUDENT DETAILS&lt;/b&gt;&lt;/span&gt;&lt;/font&gt;" style="rounded=1;whiteSpace=wrap;html=1;strokeColor=#36393d;fillColor=#F9CFF6;" parent="D0Ue_TvP8GF1oFJSITFM-26" vertex="1">
          <mxGeometry y="-26.66666666666667" width="260" height="133.90666666666667" as="geometry" />
        </mxCell>
        <mxCell id="D0Ue_TvP8GF1oFJSITFM-28" value="" style="endArrow=none;html=1;strokeWidth=8;strokeColor=#666666;" parent="D0Ue_TvP8GF1oFJSITFM-26" target="D0Ue_TvP8GF1oFJSITFM-27" edge="1">
          <mxGeometry width="50" height="50" relative="1" as="geometry">
            <mxPoint x="130" y="2480" as="sourcePoint" />
            <mxPoint x="130" y="134.05405405405406" as="targetPoint" />
          </mxGeometry>
        </mxCell>
        <mxCell id="D0Ue_TvP8GF1oFJSITFM-31" value="" style="group" parent="1" vertex="1" connectable="0">
          <mxGeometry y="930" width="287" height="1270" as="geometry" />
        </mxCell>
        <mxCell id="D0Ue_TvP8GF1oFJSITFM-29" value="" style="group" parent="D0Ue_TvP8GF1oFJSITFM-31" vertex="1" connectable="0">
          <mxGeometry y="820" width="287" height="450" as="geometry" />
        </mxCell>
        <mxCell id="D0Ue_TvP8GF1oFJSITFM-3" value="" style="shape=image;verticalLabelPosition=bottom;labelBackgroundColor=#ffffff;verticalAlign=top;aspect=fixed;imageAspect=0;image=data:image/png,iVBORw0KGgoAAAANSUhEUgAAAR8AAAE1CAYAAADeYOQdAAAgAElEQVR4Ae19DaxVR7k2WP4KBzgChiqgjdIWCvVDL7bciAlRVLwQS1JyrbYNtD2t5LaJqJiiVkv0mIveGjWpFQkGWqBwbzCeVOrFr1SpxYqRxINiP6L8tLZFtE1LlCixtOvLszbvWbNnzdp7Zq01e/3sZ5KdWWvttebnmXeeeeedv2EBHREgAkSgAASGFRAnoyQCRIAIBCQfCgERIAKFIEDyKQR2RkoEiADJhzJABIhAIQiQfAqBnZESASJA8qEMEAEiUAgCJJ9CYGekRIAIkHwoA0SACBSCAMmnENgZKREgAiQfygARIAKFIEDyKQT27on03LlzwfHjx4Nf/epXwYEDT4T+M8880z0AMKeJCJB8EqHhH7YInDlzJtiwYUMwa9asYNiwYU2/4cOHBxdddFEwYsSI0B8+vPl/eb+npye4/vrrg3379tlGy/cqjgDJp+IFWFTyv/a1rwVLliwJpkyZ0kQ2QibwQTQN4rmoJfGo37zuda8LxowZHcybNy+45ZZbgmPHjhWVRcbrGQGSj2eA6xT8zp07g+nTpwcgCJUwTNdxjWd4228Q7ogR0JIuisXR19cXnD17tk5wdn1eSD5dLwLtAfjIR/49mDJlspEUzMSTTuMRLSmJ3NB1Q9duYGCgfaL5RukRIPmUvoiKS+CyZcuCUaNGJWojrYlHbDzZNJ6kOKZNmxb84Ac/KA4cxpwZAZJPZgjrF8CiRYvCLlKrbpCZFOyMy+q3WeMYP76HRuqKiiDJp6IF5yPZu3btGjIgCymgK5TUDVJJJK1xGfadPOJYvny5D0gYpkcESD4ewa1S0OowuRCPyfCrEo5c521clnBV3zaO3bt3Vwn2rk4ryaeriz8IUFl7e3uHRqJAPO0Mv82k4Me4nDYOGKUXL17c5aVajeyTfKpRTl5Seeedd4aT/6Siu2s8Qjx+jcsNMnSL49JLL/WCGQPNDwGST35YViokTOIT0oHvTjydNy4nzY5OygdG6rZv316pcummxJJ8uqm0L+R15syZRuLJw/CrEoF6LeRWRBwwpNOVDwGST/nKxGuK0B0xkUIVjcsu+ejv7/eKKwN3R4Dk445ZZb8wEU+VjctCPjZGchiiSUDlEl2ST7nKw1tqTMQDbcde4ymvcdklHzt27PCGMQN2Q4Dk44ZXJd+eO3duzl0t87YYoonAFxuPPbl1zoC9efPmSpZj3RJN8qlbiWr5kaUSQgxCCkUYfiUNut/p2dGjR4/WUOJtEQiQfIpAvUNx3nvvvTlrPD4WieoaT2fiwNYgdMUiQPIpFn9vsWMTrjFjxgyRj41RVtVI0mojVTJgQyukKw4Bkk9x2HuNGS27kIl0teztL/UwLkcEap4djRGwrVu3ei0HBp6MAMknGZvK/oN9eNITj94NqrZxGQQDbazV7OjKFnTFE07yqXgB6slHd0snnm42LrcjHmCFvajpOo8AyafzmHuNUbbGcO9q6RpPZwy/QpRJfqfyweF3r2JpDJzkY4Slmg/XrVsXaj00LrudlgHtqKdnXDULvcKpJvlUuPD0pEN7cNcUusO4bNKsdKzuu+8+HVLee0SA5OMR3E4GDa1Hr0ymCqc+i+8OWH/jsuTfhBUOLqTrHAIkn85h7TWmSZMmheu0aFy2J1ATViBxus4gQPLpDM5eY/niF7/oeLxNdxuXWy1EveSSS7yWFQOPECD5RFhU9gor1t0nELobZbslDm5C35mqQPLpDM7eYjl06FB4tjlsGGLPSPJlxu+CBQuCF154Ifj617/etATD9J3JNmJ6T55JHNHkPh9D9mYj+Y033hjAaCxpUX2XfIDM6fwjQPLxj7HXGLAXsx3xDA+wmhuLTXX34osvBjj3Sl0LhorrUmHxflEGbJCp6pCXtMQj+Xj55ZfVIHntAQGSjwdQOxmkHfE0NIW77/5826Rt3LgxAKFNmDCh9Absyy67LPHcdmheKoGajMsqQcm1aG5r1366LVZ8IRsCJJ9s+BX69aZNm5paeKlAqi/aSJotJDDr953vfKd1HH67WpGR/G1ve1vwyCOPtMR+zZo1mTS3K664omX4/DM7AiSf7BgWFgLWJKlEo19LKz5mzOjgiSeeyJRO2JZwztf8+fObumcSB4zR0C5wr6dDv4e2hnddDNizZl0RfPzjHw/+9re/WecDI1cucUia4I8cOcI6Hr6YDgGSTzrcSvHVlClTEit6RAojgre85S25p3dwcDC4+eabg8mTJ4cHDzaIJ1/jMmxQt912W3Dy5MlU6Uc306Vbqmtua9euTRUvP7JDgORjh1Pp3jp69GgL4om6KCAFkEQn3JkzZ4I9e/aERu3Vq1cH2NoDmhK6fDiSGYf4QROBJjZ27NgAmgkWwuJ4476+vvC7vXv35ppUfeN8XQuTbmlEPJHmBvKj84cAyccftl5DXrVqlZF8Io0n6gZhm41udQMDA0acQEImrHRy6lbcOpFvkk8nUPYQhz4s3qhMzRoPWnW06N3ugIFOKnGNx9xlPHfuXLfD5y3/JB9v0PoNOF6ZZOJdpPHgHRyb0+0OW6WqeNloPPI+t1n1Jz0kH3/Yeg1ZKgf8qDLJlqFRK3799dd7TUdVAhfbTyusVEzlGiN8dH4QIPn4wdVrqEeOHBlqyePdh8hgigpkmtHsNXElDRzLLtphJYSj+tdcc3VJc1T9ZJF8KliG0o2IWvHmrpZaeXbt2lXBHPpJMpaXuM5H6u2d6CcxDDUg+VRQCO6++25DKx51tVTyOXjwYAVz6CfJN9xww4WJkGasVNzUdW1+UsNQST4VlIGbbrppaIZwY3Jfc1dLrURYNErXQOCVV14JLr744qEuq4qTeq3PwCZ+fhAg+fjB1Wuo73vf+6xnFZ8/f95rWqoWuJzuoZKNeq1qPDI7+uzZs1XLZiXSS/KpRDE1JxKrzttpPFKhmr/k3Te/+c1EzcdEPMARBn66/BEg+eSPqfcQZ858m/UCTu+JqWAEpkmHQjwgddF4hMD3799fwVyWP8kkn/KXUSyFM2bMSGy9pcJIZYp9zAcBNh8TnOALVkkr4LFejS5/BEg++WPqPUQs1FQrj36NyoQWHJWJLo6A2vVSscK1jiXusT6MLn8ESD75Y+o9RJmta6ooeivuPTEVjAAjgMBOx8qEJ57lvdK+gpB5STLJxwusfgPFei1TRTFVJg61m8vChBUmb2ILEB1bzpUyY5j1KcknK4IFfL9w4cJYBZHKpBtMOVJjLiCZ6QzcsEMA9q6GW7RoUQzbZ555xhwIn2ZCgOSTCb5iPnY5nYFdBnMZ9fSMGxrV6u/vH3pJ13ywHozODwIkHz+4eg0VK62la4CWW4zLuJbn4nNLCHNRXHnllSFW2JRNdTNnzhzCUNbOqf/zOj8ESD75YdmxkLBSHeQiXa2kIWK8s2HDho6lq0oRwW6GyZq6w3avwE2Ih5ux6Qjld0/yyQ/LjoWEeSc2xINKhL2U6eII6AcNyhsN4ol2hMQxPXR+ECD5+MHVa6i///3vh7aGULtappm7OF6Hzg4BbIAfaTyNbUre85732H3Mt5wRIPk4Q1aOD0xdreeeey48qxynQqAFxw+netLZIfD4449fsJ9FO0Li/Hc6PwiQfPzg6j1UVeMRolEjxdE6aLWxgRadHQL33vtfQxolNCDgum7dOruP+ZYzAiQfZ8jK8YEQjuqbUobtQ+nsELjuuusu7BYQbTYm83/sQuBbLgiQfFzQKtG7KunIdYmSV8mkTJ06NbZbwIEDByqZlyokmuRThVIypFGGhIV44HM2swEoh0fS1VIx5WZsDgA6vkrycQSsLK9jFEutJLj+3ve+V5bkVTIdOp64p/OHANH1h63XkGHLUSsLWu077rjDa5x1D1zFU67rnuci80fyKRL9DHHLthCoJDI3BQtO6dIhgPPshXBUP11o/MoGAZKPDUolfQersdWD8MaNG1fSlJY/WeoGY0I+nKDpt9xIPn7x9Rr6VVddNbSoFItLoQHRpUMAx0oL6Yj/4IMPpguMX1khQGm1gqmcL2FeCpZUNIinMTeFJ5SmKyt1VjjIB5M4OdKVDkvbr0g+tkiV8D2cXCoaj7TW7CqkKyjBT4jnkkumpguIX1kjQPKxhqp8Lx458tvQ5qNWHByKR+eGwL59+4a6XLJbAHY0pPOLAMnHL77eQ1eJB9c9PT3e46xbBIsXLw7JR4gHi3Y/97nP1S2bpcsPyad0ReKWIHXnPSEiHnLnjqEQD7qxuMbCXDq/CJB8/OLrPXTsVCikI/6yZcu8x1unCMaOHRuuZle3KalT/sqaF5JPWUvGMl1nz54NR7yEeOCPGjXK8mu+dv/93x6argCNB/jRbtYZuSD5dAZnr7FMmTJlSPuR7sPJkye9xlmXwEE0qsYD8sGEQzr/CJB8/GPsPQaTwfSWW27xHm8dItCJB7PG6TqDAMmnMzh7jQVnc4nGIwZTHKlM1xoBaDjS1ZJuKwz4dJ1BgOTTGZy9x4JD8PRWfHBw0Hu8VY7g6quvHuquCvn09fVVOUuVSjvJp1LFlZxYLLVgK56Mj/7P3//+95ihHgRE1zkEiHbnsPYa0w9/+HCsFWdlSoYc0xFE2xGfXdVkvHz8Q/LxgWpBYUolUn2eWGouDBUjud68ebP5ZT71ggDJxwusxQRq2lp1+vTpxSSmxLHu3r07pvWAgOg6iwAR7yze3mPTTy3FZmM7d+70Hm+VIkD3SrQd8dnl6nwJknw6j7nXGLEaWyqUbK/KGbsR5DjnXvARH4T9u9/9LnqJVx1BgOTTEZg7F8nAwEBYuYR4ULFwaunhw4c7l4gSxwQiFtIRf/bs2SVOcX2TRvKpYdm+/vWvv7BeSXY5HBZgCUa3O5PWg27ptm3buh2aQvJP8ikEdr+Rfuc734mdOY5WHpWvm52+VSq0w4kTJ3YzJIXmneRTKPz+Ip82bVpsl8NuNqrGzzkbHmqH9957r79CYMgtESD5tISnun9+61vfitk2oP2sWrWqupnKkHJ15b/YwzgNIQOgOXxK8skBxLIGoVY4Ma7C7zaHwxQl/0I8MMR/+ctf7jYoSpXf7pPEUsHvNzFY7S6VTvX/5V/e6TfiEoV+8ODBIQzUAxavuOKKEqWyO5NC8ql5uetGVtl6Y8OG/6x5zhvZQ9cKxBtpPBeFtp5f/vKXXZH/MmeS5FPm0skhbTjTHRtkoQIK8WDrjQkTJuQQermDkOUmqsaD/Y4uu+yycie8S1JH8umCgl69enVIPKh46p4/dTa4YpEo7Dq6xoM5UHTlQIDkU45y8J6KMWNGNxGP2IBwRnndHI45biYemWw5PMApr3TlQIDkU45y8J4KGF5xRIyQjurXbfgddi69qwUNiGvcvIuZUwQkHye4qv3yjTfeaCQfEBGODK6Dw0RKvauFe57kWr7SJfmUr0y8psh0winIZ+TIkcGjjz7qNW7fgS9YsMCg8QwPCXfjxo2+o2f4jgiQfBwBq8PrsIeo3S7RFHp7JwZPPPFEJbOIiYSSDxjVYVzHPfIJjY+ufAiQfMpXJt5TpK5ziipswygLDahqp140E09kXAbx8Bwu7+KUOgKST2roqv0hzqwyGWVFI6rKqFDDxtNYJAqNTtV46jyVoNrS10g9yacOpZgyD9dee61x6w0hoLVr16YM2f9nGE5vjGoNCwlH72pB4zlz5oz/hDCG1AiQfFJDV48Pr7nmmtjWG0I+8OfOnVu6jKLb2JjHo2s8DeMyiAdTC+jKjQDJp9zl05HUmc6wUglo0qRJwZYtWzqSlnaRYESreQJhs3EZQ+p1mTbQDouq/0/yqXoJ5pT+pCF4dT0YjhcuymHTr97e3nD0SjeSw3YlZImV/HTVQIDkU41y6kgqsdRCKjF8lXhwLf9hdKlTbuvWreEEQYk7yUiOvYuqNkrXKQzLGg/Jp6wlU1C6YGRGt0aIB6NHKvEICaB7A7J6+umnvaQUdh1dG4s0nuauFgzPdNVDgORTvTLznuIf/ehHQU/POONCVCEf1X/DG94Q3HXXXcGLL76QKW3Y4F7ddVCNI67xNLpasAHRVRMBkk81yy2Wauzbg20kMJs3rwr59re/fairpRKBeq1qIzgf7I1vfGMwb968YMWKFWF6jh49GkvrX/7yl2DPnh8G69bdFcCOBA0HmpQarnqtxiHzeKCdYa5SVodFtYsXLw4++9nPVnZ2d1YMivqe5FMU8hniReWFAXb58uXheVxqRZXrH//4xxliiD5FN0zC1P2IFGRyX2T41d+Ve+nOqfsKyX8m3xQHulnHjh2LEpnhCsPyehyY5Q0CvfPOO4P9+/dnCJ2ftkKA5NMKnRL9B7K55JKpRvuLXmnRRVm5cmWuqde7Q/FuUGMdlZ4W9d6deJrn8Ywf3xPAFpSnc8kHpiSYNLk809NNYZF8SlzaWIn93ve+N1yflGT4VSs3rqUV97F3DSoewh05sqHp6LOK9bSo90I8rvlAHDjY77bbbsu9pL761a8aZ0er6davkQ8s6bj11luDU6dO5Z6mbgqQ5FOy0sbokew9LBXWvovSrCk8//zzXnJ39Oj/C7slDfuLj65WIx/oEn3+85/3kgcEOmfOnHBkL0s+MMTPgwfTFRHJJx1uuX+1a9euUKuAIRWtLYgHlcKeeOJrnGC38O1g9J0/f35YiXUtIU0+sMcy1pzt3fu/XpOOrUNcNbdW5QESquOWtD4LgeTjE12LsDG8DDVerbjuGo8QT9zwa5GE3F7Zvn17OFSuEigqeDsChYaDinv48OHc0tIuIGCeReNRy0u9Rt59dBHb5aeK/5N8Cio1LHyUSqoKrzvxNHe1YPNRw1u/fn1BOWxEe+7cueDEiRPBgQMHAhAtRo+OHDlSaJr+8Ic/XCCeZqxU3OQ6S3lAg6NLRoDkk4yNt38wr6QV8aBFhtBLBUjyxbjcqvuA7gBdMwKLF79vaJfDJGzxXIgnS3lgWgDmX9HFESD5xDHx9gRaSJKwi6C366LI9/Eh4mTDb39/v7c8VS3gX/ziFy23EBF88y4PjBJyf6FmaSH5NOPh7U6364iQw4egtzJmqu/i2kbjUb/h2qeoWGfPnp3YAAhmvsoDtq2q7BAZIebviuTjD9swZEyKg9CJYOu+ewubbFzWw5Z7xJHHUgTPUHkP/vvf/76xuys4we9EeRS5NYl3kB0iIPk4gOX6Koa6VcHWr90FvbVxWQ9fr0yu6a/b+yY7m4pZp8vj4YcfrhvETvkh+TjBZffyq6++Gs7ZUQVbvxZBz2LM1MPU7/U41q1bZ5eBEryV91YdrdaoATcdKx1L/d6162uKAxrxmjVrSoB2MUkg+eSMO+aq6IKq34ug+zAuS1ymOLATYB4OizoRD1a95zmSc+jQoXCxLMLGqvi8HDabz7frq2ugycb+VuUh/2HNWDc6kk+Opf7tb3+7pZBD2EAKPo3L7eLAbOQ8nJqPCRMmhNtiYFkIZmrbOsx1wuRCbFIvW6RKhRwYGLANpu17OEJHwtV9NR+41v/X79NqPO3KPK9yaQtGiV4g+eRUGFikmL9NIZ1xGRpVK60qjyxjhX2rOFBpsUcPhpjf9a53Be9+97tDksF3mCagV2r9Po80IgxMbNTDlnuQTTus5F34EfHEZ5Kr76nXLnH4WAycF44+wiH55IDqJz/5yUQBF0F0EcKGoOuqfX6zcfNY87Vt27ZQi5P8Jfnx+Ujt83HttR/OoVQaQSRtUlam8hDsgNW0adNyy3vZAyL5ZCyhz3zmM9YaTyeNyyLQSf6OHTsy5jwIWnVnEG+kKTTvuZyUJjwHKZw583LmtCGApCOBhHjKVB4qVt1CQCSfDGL+3e9+twMaT/suilSmdt0gqfRoYadOnZoh541PW3Vp4hqPXT6w9CQPhzVkpm5wGqwa9ho/Xa0GSeta7vCwu5oHDmUOg+STsnQwYa3VCIq04u0MjUIIDSEUG4+bppA2DmyIldVhq1E1D1nykUd3UPJj6m6BeNJihe+gneh51e/zjKPuRmiSj0irg495PCbhVgXRvYUV4vHZwsbjcMh24qvq0pGo++CWD5yWkZfr6+uLkURVykOVIVznOeUgL3zzCofkkwJJG43HbRRFV7vtWtg84sirdcUpEPGull0+8jwPfvfu3TkQT3HloZMP7qs0OdSlOpF8XNAKgmDRokUx4VYFRlpYqOm4Vv8zXUeagltXC8STRxywi2Cv6DzcN77xjfA0DdsuyqhRI3Pf6F7XSKtWHiYZQWP35JNP5lFEpQqD5ONQHDgTyyQc8kwE3cXwi4oKAmhUWDujbDaNxxyHAwxtX8UhgoJJkg+sdu7c2TYslxfQRVHjq3J5mPLhgkUV3iX5WJYSTm5QBUK/hqA3iMSvxuMrDhBrXq7dELxglVd8CAfdLXV0S+KwbwjEHuamgfoqD5EvNR84yaROjuRjWZqtKhQExE0bEUH3qfG4xYGK+9RTT1mi0fq1VjYxFau//vWvrQNy+Bc7NqoVturlgbyoWOEaz/I+t8wB4txfJflYQIq5JyLYum8SEP0d9T6tUdatMqUzmIJg83BqftVrHavBwcE8oguP8ZF49DjkeZJf5vIwlTlsWnVxJJ82JYmtHZJachF0qN64ThJweV60cVnSoftqPj71qU+1QaT933r4uFfjEKzyWDy6devWIdxNcZjSIs+qUB6ClaQZ/oIFC9oXQgXeIPm0KSRsQaoWvFyLoKN1MgmIvCd+vIU1G37lffhFxdEGkrZ/q3lolY88DtuT0a2isNLzqt77LPO9e/e2LYeyv0DyaVFC2HpUFSa5hqB30tBoR25i48luMM0y9wdH5QhO8FthtXr16hbot/9L7Dyt4lDTItdpNZ4ylTkmdlbdkXxalKBJ64Ggm/riIti6Hwl6eYzLSGO7fKSd2KaOCraLA/v/pHXYiN0mH3UpD1M+7rjjP9LCV4rvSD4JxbB8+fKmFjydoKcz/LqRm784EqBp+Rh2HFus0rbeOIDQNg610sa7QXYzsMtSHpIXNR8tC6Pkf5J8EgoIAq7+fvKTnwT79j0a/n72s581/ae+J9ePP/548Oijjfd/+tOfBj//+c/bflO2OBKgafvYNh/YyTCNwzautnHUqTyQF12u0uBXlm9IPmUpCaaDCHQZAiSfLitwZpcIlAWBypLPa6+9Fjz99Mnwd+LEieD06dMtf3/+85+DZ599Nnz/5MmTwfPPP5/4/pEjR8IuErpX0tV69NH/27bbhK4Vulj4Bl2uxx57rO03ZY8D+XHJx/79Pw1csGq8b48V3m/g253locsVuq7PPfdcTJZPnTqVuX74JqlKkY8YgduNoohhTnzVQIfhUoxAyX9JPuOQ0TlilSQj3SRXqHt5u0qQDw58k1nGQgp1mlWMPCUJuDyPhuzd5vFgpIZY2RMosUrGCnUQdTEvV3rykYlkqIRCPKhQdhVWH4Yu76xiIRmTH29hmQ8TTnhGrFofm6Tilhar6dPzOWGj1OSjbs8JskGrZE88+c34VQtMvU6rjTAf9l1fYlVOrC6//PLMClBpyUfdMdBd4xHiEbuFD02Bcbg3BCwPtfEyXUcNWvmxynrSSCnJB0fuSsG4E4/e1UruwzIOYmVPoMTKhBWOT0rrSkk+sqZKiIdGQHsCJVbEShpV3Y+0qvwGLbLsAVU68jl79mxO63Z8dLX01o9x6AIu92mNmWhdTS2shKv6jKMcWNVG81m/fn3LbRhU4ZPrtIxOY2Y5jZnQeKVsk3yWuQvxiH3STeOxrR/9/f2p+Kd0ms/HPvaxrtiyQq9UUWUqv6FRT7t6z3ykIYVql/lNN91UD/L54Ac/mEHttu/vp1ftGYdKNup1vBtErFR81Os6YbV06dJ6kM/KlSstJxCmUyVBOjTK2pMCsSJWKmmq16Ll3nrrrfUgn02bNln092n4Ta+50UiuViD1Oq6NECsVH/VaxSrt4Y+ls/mAQtVM6tfCtqLB4F5/R7+HAdPWeIZvGUcau4UfYybLo/yym0rtQT1P+6HP73TykPuIFKptoGM+0pAby1zqQZJflFyl5YJSko+6pkuAVtU8aDEAWv5L8mWSYvouCuNIwpbl4UKgupmgPnI1d+7ctNxTTs1nzZo1TcQSMbqbai9dM5/zRhiHW0NAA7Y98VQBK5wiktaVUvM5dOjQEPnEW1gaAe21EWJFrOJkl71HEMkVdv1M60pJPsgMNi5Kq/HQuGyvjRArYpVE0Hjeqg5mPTe+tOQzY8aMCyNUNDS2Eo5mASFWxCqu6Qgm7hqPzKUzy1Xac9dEUyot+SxYcE0wYoRkOhnQ9MDW1wgomCT57kJIrDhoEa+DCxYsEB5J5ZeWfGB0RpfAZVSrCga6JELAcyEF5iMu6DpuxKr4wZcsxmawVWnJ57e//W24H68udPq9CGH6likynulhyz3jEA2UWIlM6H43DozguKosrrTkEzLjsNYtIEiBBlN77ZBYESudNNX7VsZl9T1cwySS1ZWafEyTDQUEd22ktfFMwlV9xuFT42F52Gvr5cNq5syZWbmnvN0u5Kyvr29ovk82UqDB1F7QiRWxat3jQF28/fbb600+27dvj5GPaCM0yrYXEGJVvFHW1GjWQXa3bdtWb/I5f/58E/lIZUrfMtFgqlYG9bobDaaSf8qVe/cadTOrK7XNB5lTBYQGUxpMRR5MvovBVL4H8VCu3OUqK/GEdTuPQHyGASFxb5nKZ6BjPrAK3L2FtddyWeadwmrUqFG5VPnSaz5Ll/6b44byNJjaCyGxIlb2tkPBasWKFd1BPtiisQ4GOhQc82Ev6MSqvFjt27evO8gHuUS3S/roST4Nplk2t6IhnnIVJzuTuSOPyYXCXKXvdiGhrSYbQmhoaHQhHrGNuA1D0yjrbpS1azSrVR55TC6sFPksWbIkUfOJiIfGzKTWW54TqzQkTbkS+YG/bNky4Y7MfiU0H6yeVQGQ63hXK646yrvim1RJ+c/kMw6XCksDthhlTbKkPquqXHTOoM8AABAkSURBVOE487xcJchncHAwRj5RK+7WfaDh1777QKyIlUqYuD569Ghe3FPutV1qLlUQ4q0GDaYqPuo1scqiuVGuVFnCdZ4u39DyTJkWFvZ0RubTajw0mNq34sSKWOmkg3vUwTxdZchn0aJFCvHQCGgSDvVZRNLESsXFdE2s7LRDDPzk6SpDPg888MCFNThSmWhcNlUkPIt3tYgVsYrLgOvgy44dO/LknurYfF544YVwmQW6BGipkoRJnguweN/nfAsaZVkeInMmP9Kqqj0wMnLkyODll1/uTvJBridPnsx9nVtsLRvXeGgwNRECnhEru66WYDV16tRciQeBVabbhcTOnj3bSuOhwdReGyFWxCqJoBvE05iBneVM9iTWqhT5LF68uCX5SFfLfqKXTG0XO5IPTYFxsDyqL1dLly5N4pDUzytFPrt27UokH3fi4Wxce1IgVt2O1SOPPJKaZJI+rBT5IBMmFVGIh8ZlGuJN8qF2H0AikBMOWiTLislInkQgWZ5XjnxksqEImRBP+pbJh0qsawqMQ8pL92n4dTP8Nmx0Ps0Ecdnt6enJwjGJ31aOfDDZUAQYxEODqX0rTqyIldQdk2/SePBe3pMLhY0qRz6ywt1d46Hh1147JFbEKtLW+/v7hS9y9StHPocOHUqxobyuSib3d6VFcCc3xmFfYYlVlbA6cuRIrqQjgVWOfJBwFBy6ECAIIYskP0mVTHofz4V4GIc9SROr+mIlZJG3X1nysSMevYWNVMkk8hHiSd8yMY4kbGlcLr9x2VR2eZOOhFdJ8nnTm97kTeOhUZZGWVMFlGdpNemqyhX2T/flKkk+a9eubUk+kYD4HJKkUdZeOyRWVcUKAzy+XCXJ5/Tp04nkE1ft7fvi9gKid+cYh2gGus/yyNLVKl6uzp4964t7qrWwVEUBE5/igi4tLGex6tjo95F2SKx0bPT7bsXK1+RCqceV1HyQ+Pnz5zeRT7yFpeFXr0RyT6yyaCPdI1dXX3218IQXv7Lks2rVqiHySdsyVdUIKCQCH6NzzAeN5KpM6Ndp68fKlSu9kI4EWlny2bhxY0g+EbA0LutCp98XgdXYsWODD3zgA8EnPvGJ8Pf+978/3IhcTZv79AbpXrPMVRxN11nKHHXMp6ss+QCUePeheAMdBMC9MtXPgD1+/Pigr68vePbZZ4PXXnst/KHMcP3MM88EN998c3DxxRcTqxFCoOWTXZ/Eg7ArTT7S3YAPhjcxv/pMSAHv41r9z3QdtRo0yprwUZ+pWGG/3y984QvBmTNnhkhHiEf8l156KbjrrrsCvMvyKKfsknxaIIAJUA3i6R4joBBo+mkB/rFauHBh8M9//nOIeHTNB/fnzp0LQED/+q8LLBsCXTv0nw9o1irBmq6rUB5p8jFz5swWNS+fvyqt+dxxx39YazwgKfsKKzYFN42HcVwUjBs3Lti5c2eMeISAhHgwfwS/LVu2hN0vU8WWZ6pW1Whs7DQFlod9j0DHat26dfkwTItQKk0+jz32mIeWSYhH+uI+Wr/6xvHWt741+M1vfjNEPiJ7Qj7QeIR4/vGPfwS//vWvA2iwQjS6HxEPy0PHRr/PE6uDBw9K0XnzK00+QEXf2VAtkOwqsV0LC43KXqvSuw/1iuOqq64K/vjHP4YCC8KBE+IB2QjxgITw/Omnnw7mzJljJB8OKBQjV74nF4ZCUXWDMzIxffp0o+AK8UCdxLVKSqbrqNVw62qBdBhHRKCXX355cPTo0SbSAcmoGo8QD54/9dRTAewLepmwPIqTK5+LSYV44Fde89FnOkOIhXjSayM+ulq6xlPPOCZOnBjs2bOniXySiAcvDQwMBBiWV8knrvHUEys1z3JdBtlFneqEqzz5rFmzpklwUXi68UwK1uSnbWEZR7Ix87rrrgteeeWVsFuVRDzQejAi9uEPf7ip/FgeLl0tsR26aevtZLcTxmaQW+XJZ3BwcEh43VsNKTwaM03ErD6LSKE9ViNGjAj+53/+O1BtPLgG4Yh79dVXg4ceeihsKCQelzjkG5Z5+/JwxerYsWNSTF79ypMP0AG47kKod4Miu4UUlu4zDhH09lhNnDghnGh44sSJ0N4jxAP/T3/6U3DPPfcE6s4E8a5W+zhYHvbl4YKVV8ZRAq8F+bz5zW/mvs4lnOWNdV2wH0CNf/DBB4MHHnggnNWMZ6NGjRrSWCONx637QGN/ctdXbTiFeGwGRjoxuVD4pxbkc8MNN2QY6qYxUxVU9TqujRArFR/1ui5YYc1dp1wtyGfz5s1eh9PbGeiahVDsSG6tOOOwb8WJlT+stm3b1inuqb7BGUidOnVqSIVXiUC9jlR76Sf7aMWFeBiHir3pmuWRZlTLv1ydPfs3ko8rAiYBl2dxlZjGTMFG94mVCynUb9DCtd5leb8W3S4AgOFdvSLhPmph3bpBNGbaq/bEqh5YjR49OguXOH9bG/LBNg46+cRbcR9dLb31Yxx6Ocg9yyOLVuVfrj70oQ85E0iWD2pDPrt3724in7QaD42Z9q04saoXVnv37s3CJc7f1oZ8kPOohaXh135dG7EiVg2typk9Mn5QK/LBCve4ak/jspCy7hOrLN2geslVp1ayq3xVK/LByQjSFYCPrpde4fR7l9mf+DZtd45GWZaHLnvqfdFytWzZMpUXOnJdK/L59Kc/HY56NYjHv4EOmoMqQKZrITd71Z4GbGLVebnyeSZ7EpPVinwOHDgQaj62Go9oSSAIE3Goz9K2TIzDXuMhVsVhJRvAJRGFj+e1Ih8A5EcboVHWXhshVlXEyge5tAuzduTTak9naDLZu0H2diR7IdS7WoxD1TrVaxrJ8zeSo84U4WpHPosWLUrsQgnxQL332dUC6TAOewIlVsVitWTJkiK4px4LS1Xk5Ax3tbXMR+PpvBFQzwPzgVbf5+JKXQPtjjLfunWrWoU6dl07zQdH9OqVFloOjZnFGTNZHg3NpoyDFiBznBxbhKsd+QDE3t7eIQKSrpa9/YUGU2LlQ+Mpp1xNmjSpCN4J46wl+cyaNSskH3fi0dVu+764fYVlHMSqPHI1d+5ckk+eCCxevHhoVIvGTHtBJ1bdh9XSpUvzrHpOYdVS89m0aVO4p3P6FtaH2q1rPIxDtwXJfXw4nVgJNrqfFSscX1SUqyX5AEx74pG+uNtmYzRg04CtE4F6X0bjMtKnD74URTyIt7bkox7NogqFeh0JiM/hWyE3xqFib7pmebhMIMwuV0VNLhTCqy35tJpsCMGPq6v2/X17rUrvajEOE+mwPF6X0UyQTq5gGy3S1ZZ8sEo3WdCl1XDraoF0aJS1F3RiVW6s+vv7i+Se+na7sMLdRD5xjYfGTBNOZm2EWNUJq0OHDpF8fCGgC0pkU3DTeGhcpnFZlyX1vqpy5ave2YZb224XADALCA2/Ki6m66gyESsTPuqzKmNlSxK+3qs1+UyZMiUkoHhXy74vTuMysVLJRr2uslxhv/OiXa3JZ82aNdxzmUZy7uU9LN6ArFu3rmjuqa/BGcgeP378wmp2n90HfTidRllVO1Cv45oCsVLxUa99Y3X69GmSj28EenrGhQSEvrlauKZrffan6R31WdTfpwFbxcV0TazSTCD0I1c9PT2+q51V+LXudgGBefP+D/d1NqjdQhARKfjUDmVeFeMQ3JP8TpTHO97xDity8P1S7cnnox/9qJXGA8Myjct22iGxsp96UEasVq5c6ZtXrMKvPfncd999LclH9vzhbFx74iFW1cYKWw2XwdWefM6fP59IPkI86TUeGkyTuw80xJdVrspAPEhD7cknzKTB5kHjsh9jJsgoslswjiRyludFYEXy6SACMtlQCtxd46HB1L4VJ1ZlxmrGjBkdrHmto+oKzQeTDdMTj959sO/v2wsh4yBWnZGrMkwuFErqCvLZv39/SD6i8dBgai/oxKpeWB08eFDqfuF+V5APUB47dmzGDZtoXBbtUfd9z8ZFfIwjy1SQhuwWvXOhznZdQz6XXnqpwzwesVvQYKoTjX5fhMEUcerp0O85oBCXXdSBMrmuIZ958+Y5ns/O2bh6hdbvI+IhVjo2+n0ZsJo/f36ZuKc7htqB+O233962tYyr9nYtLIylNJgSK51w5L4scrV27VqSTxEIYMtIEQaTH7VMcXXV9D6e0YBNrJJkQ56XSa6OHj1aRNVLjLNrul1AQARC9+MtE43LOkZyT6yyaLnFylUiCxT0R1eRD7YSkEokftqWCUPQ9l0tGrCJlV231JdcYaJt2VxXkQ+s/UI68CPiocFUxcV0TazSNDblkatZs2aVjXu6x+AM5FesWDFEPvHug13LRONytbeTaGgWQgrdU+Yf+ci/k3yKRGDz5s0h+UStOA2mJi1HfUasGjKCwQUVF9N1mbHasmVLkVXPGHdXdbuAQFzjKdYIKEIsI2f2thF9PRjzIVjqPsv8ImPlL/ph15HPggULQkMx1G+0VLqg6vecKeumHfoymEq5sDzcy6PoM9mTSK7ryAdATJ48mfs6G/Y4kgoedR/ENuJDq5IRQMYhuCf5WcqjjKNcQkZdST6HDx8ORowY0VLryd4NstOqaMC210CJlRtWWEh64sQJqeul87uSfFAKu3fvDkzzftD6CPGgC4HrpBZJnkctk5tKjMrEOOxJmljZYzVx4sTg4YcfLh3hqAnqWvIBCC+++GKAY2OFRFTioeHXR1eLRvJOyBXms7300ktqPS/ldVeTj5QIhuBhiB41atSFE079ajw0ytp3H4iVHVaQ3YULFwZlOZlC6lYrn+SjoXPgwIHg/vvvDzZs2BD09/cn/r7yla8E99xzT7B+/frQx32r9/Hfl770pWD9+sY3uG73PuMgVq3kCjIKsnnyySc1Ka7GLcmnGuXEVBKB2iFA8qldkTJDRKAaCJB8qlFOTCURqB0CtSefY8eOBXPnzg0w2QpD6/KbMGFCgOHI3t6JAa7leZI/fnzPhfd7Q3/8+PFtv2EcxCpJnuR5J+UKdWDOnDnB8ePHS0FktSafgYGBABOt1KH0dMPpnI1rP0RMrMqOFerEnj17CiegWpOPTjrpiEefm2I/0cteCBkHseq8XBXNPrUlHxyOppMPZy5zBrYuE/p9N81WHxwcLJR/aks+W7dubSIfIZ70LSxn/OoVVe65ZYXLLoe6llucXG3fvp3k4wMBVfMB8XCmrN1MWWLlph1WWa5wokuRrraaD0BFy+yu8dBgaq8dEqsqY1Uk8YT1s+gE+Iz/oYceCnp6xjmcMqGrxJ03AkpXRvXdCZT5sCeF7sMKo10YCS7a1VrzAbhQLa+88sqgt7e35bwczNsZN25c+A7m/2D+hczFSPLHjh0bkhvet5srxDiIVXFyhTqAOW9lOTyw9uRTNLszfiJABMwIkHzMuPApESACnhEg+XgGmMETASJgRoDkY8aFT4kAEfCMAMnHM8AMnggQATMCJB8zLnxKBIiAZwRIPp4BZvBEgAiYESD5mHHhUyJABDwjQPLxDDCDJwJEwIwAyceMC58SASLgGYH/D+qA+97b6G4+AAAAAElFTkSuQmCC;" parent="D0Ue_TvP8GF1oFJSITFM-29" vertex="1">
          <mxGeometry width="287" height="309" as="geometry" />
        </mxCell>
        <mxCell id="D0Ue_TvP8GF1oFJSITFM-5" value="&lt;font face=&quot;Courier New&quot; size=&quot;1&quot;&gt;&lt;b style=&quot;font-size: 28px&quot;&gt;USER (STUDENT)&lt;/b&gt;&lt;/font&gt;" style="rounded=1;whiteSpace=wrap;html=1;fillColor=#d5e8d4;strokeColor=#82b366;" parent="D0Ue_TvP8GF1oFJSITFM-29" vertex="1">
          <mxGeometry x="60.25" y="370" width="166.5" height="80" as="geometry" />
        </mxCell>
        <mxCell id="D0Ue_TvP8GF1oFJSITFM-30" value="" style="group" parent="D0Ue_TvP8GF1oFJSITFM-31" vertex="1" connectable="0">
          <mxGeometry width="287" height="430" as="geometry" />
        </mxCell>
        <mxCell id="D0Ue_TvP8GF1oFJSITFM-2" value="" style="shape=image;verticalLabelPosition=bottom;labelBackgroundColor=#ffffff;verticalAlign=top;aspect=fixed;imageAspect=0;image=data:image/png,iVBORw0KGgoAAAANSUhEUgAAAR8AAAE1CAYAAADeYOQdAAAgAElEQVR4Ae19DaxVR7k2WP4KBzgChiqgjdIWCvVDL7bciAlRVLwQS1JyrbYNtD2t5LaJqJiiVkv0mIveGjWpFQkGWqBwbzCeVOrFr1SpxYqRxINiP6L8tLZFtE1LlCixtOvLszbvWbNnzdp7Zq01e/3sZ5KdWWvttebnmXeeeeedv2EBHREgAkSgAASGFRAnoyQCRIAIBCQfCgERIAKFIEDyKQR2RkoEiADJhzJABIhAIQiQfAqBnZESASJA8qEMEAEiUAgCJJ9CYGekRIAIkHwoA0SACBSCAMmnENgZKREgAiQfygARIAKFIEDyKQT27on03LlzwfHjx4Nf/epXwYEDT4T+M8880z0AMKeJCJB8EqHhH7YInDlzJtiwYUMwa9asYNiwYU2/4cOHBxdddFEwYsSI0B8+vPl/eb+npye4/vrrg3379tlGy/cqjgDJp+IFWFTyv/a1rwVLliwJpkyZ0kQ2QibwQTQN4rmoJfGo37zuda8LxowZHcybNy+45ZZbgmPHjhWVRcbrGQGSj2eA6xT8zp07g+nTpwcgCJUwTNdxjWd4228Q7ogR0JIuisXR19cXnD17tk5wdn1eSD5dLwLtAfjIR/49mDJlspEUzMSTTuMRLSmJ3NB1Q9duYGCgfaL5RukRIPmUvoiKS+CyZcuCUaNGJWojrYlHbDzZNJ6kOKZNmxb84Ac/KA4cxpwZAZJPZgjrF8CiRYvCLlKrbpCZFOyMy+q3WeMYP76HRuqKiiDJp6IF5yPZu3btGjIgCymgK5TUDVJJJK1xGfadPOJYvny5D0gYpkcESD4ewa1S0OowuRCPyfCrEo5c521clnBV3zaO3bt3Vwn2rk4ryaeriz8IUFl7e3uHRqJAPO0Mv82k4Me4nDYOGKUXL17c5aVajeyTfKpRTl5Seeedd4aT/6Siu2s8Qjx+jcsNMnSL49JLL/WCGQPNDwGST35YViokTOIT0oHvTjydNy4nzY5OygdG6rZv316pcummxJJ8uqm0L+R15syZRuLJw/CrEoF6LeRWRBwwpNOVDwGST/nKxGuK0B0xkUIVjcsu+ejv7/eKKwN3R4Dk445ZZb8wEU+VjctCPjZGchiiSUDlEl2ST7nKw1tqTMQDbcde4ymvcdklHzt27PCGMQN2Q4Dk44ZXJd+eO3duzl0t87YYoonAFxuPPbl1zoC9efPmSpZj3RJN8qlbiWr5kaUSQgxCCkUYfiUNut/p2dGjR4/WUOJtEQiQfIpAvUNx3nvvvTlrPD4WieoaT2fiwNYgdMUiQPIpFn9vsWMTrjFjxgyRj41RVtVI0mojVTJgQyukKw4Bkk9x2HuNGS27kIl0teztL/UwLkcEap4djRGwrVu3ei0HBp6MAMknGZvK/oN9eNITj94NqrZxGQQDbazV7OjKFnTFE07yqXgB6slHd0snnm42LrcjHmCFvajpOo8AyafzmHuNUbbGcO9q6RpPZwy/QpRJfqfyweF3r2JpDJzkY4Slmg/XrVsXaj00LrudlgHtqKdnXDULvcKpJvlUuPD0pEN7cNcUusO4bNKsdKzuu+8+HVLee0SA5OMR3E4GDa1Hr0ymCqc+i+8OWH/jsuTfhBUOLqTrHAIkn85h7TWmSZMmheu0aFy2J1ATViBxus4gQPLpDM5eY/niF7/oeLxNdxuXWy1EveSSS7yWFQOPECD5RFhU9gor1t0nELobZbslDm5C35mqQPLpDM7eYjl06FB4tjlsGGLPSPJlxu+CBQuCF154Ifj617/etATD9J3JNmJ6T55JHNHkPh9D9mYj+Y033hjAaCxpUX2XfIDM6fwjQPLxj7HXGLAXsx3xDA+wmhuLTXX34osvBjj3Sl0LhorrUmHxflEGbJCp6pCXtMQj+Xj55ZfVIHntAQGSjwdQOxmkHfE0NIW77/5826Rt3LgxAKFNmDCh9Absyy67LPHcdmheKoGajMsqQcm1aG5r1366LVZ8IRsCJJ9s+BX69aZNm5paeKlAqi/aSJotJDDr953vfKd1HH67WpGR/G1ve1vwyCOPtMR+zZo1mTS3K664omX4/DM7AiSf7BgWFgLWJKlEo19LKz5mzOjgiSeeyJRO2JZwztf8+fObumcSB4zR0C5wr6dDv4e2hnddDNizZl0RfPzjHw/+9re/WecDI1cucUia4I8cOcI6Hr6YDgGSTzrcSvHVlClTEit6RAojgre85S25p3dwcDC4+eabg8mTJ4cHDzaIJ1/jMmxQt912W3Dy5MlU6Uc306Vbqmtua9euTRUvP7JDgORjh1Pp3jp69GgL4om6KCAFkEQn3JkzZ4I9e/aERu3Vq1cH2NoDmhK6fDiSGYf4QROBJjZ27NgAmgkWwuJ4476+vvC7vXv35ppUfeN8XQuTbmlEPJHmBvKj84cAyccftl5DXrVqlZF8Io0n6gZhm41udQMDA0acQEImrHRy6lbcOpFvkk8nUPYQhz4s3qhMzRoPWnW06N3ugIFOKnGNx9xlPHfuXLfD5y3/JB9v0PoNOF6ZZOJdpPHgHRyb0+0OW6WqeNloPPI+t1n1Jz0kH3/Yeg1ZKgf8qDLJlqFRK3799dd7TUdVAhfbTyusVEzlGiN8dH4QIPn4wdVrqEeOHBlqyePdh8hgigpkmtHsNXElDRzLLtphJYSj+tdcc3VJc1T9ZJF8KliG0o2IWvHmrpZaeXbt2lXBHPpJMpaXuM5H6u2d6CcxDDUg+VRQCO6++25DKx51tVTyOXjwYAVz6CfJN9xww4WJkGasVNzUdW1+UsNQST4VlIGbbrppaIZwY3Jfc1dLrURYNErXQOCVV14JLr744qEuq4qTeq3PwCZ+fhAg+fjB1Wuo73vf+6xnFZ8/f95rWqoWuJzuoZKNeq1qPDI7+uzZs1XLZiXSS/KpRDE1JxKrzttpPFKhmr/k3Te/+c1EzcdEPMARBn66/BEg+eSPqfcQZ858m/UCTu+JqWAEpkmHQjwgddF4hMD3799fwVyWP8kkn/KXUSyFM2bMSGy9pcJIZYp9zAcBNh8TnOALVkkr4LFejS5/BEg++WPqPUQs1FQrj36NyoQWHJWJLo6A2vVSscK1jiXusT6MLn8ESD75Y+o9RJmta6ooeivuPTEVjAAjgMBOx8qEJ57lvdK+gpB5STLJxwusfgPFei1TRTFVJg61m8vChBUmb2ILEB1bzpUyY5j1KcknK4IFfL9w4cJYBZHKpBtMOVJjLiCZ6QzcsEMA9q6GW7RoUQzbZ555xhwIn2ZCgOSTCb5iPnY5nYFdBnMZ9fSMGxrV6u/vH3pJ13ywHozODwIkHz+4eg0VK62la4CWW4zLuJbn4nNLCHNRXHnllSFW2JRNdTNnzhzCUNbOqf/zOj8ESD75YdmxkLBSHeQiXa2kIWK8s2HDho6lq0oRwW6GyZq6w3avwE2Ih5ux6Qjld0/yyQ/LjoWEeSc2xINKhL2U6eII6AcNyhsN4ol2hMQxPXR+ECD5+MHVa6i///3vh7aGULtappm7OF6Hzg4BbIAfaTyNbUre85732H3Mt5wRIPk4Q1aOD0xdreeeey48qxynQqAFxw+netLZIfD4449fsJ9FO0Li/Hc6PwiQfPzg6j1UVeMRolEjxdE6aLWxgRadHQL33vtfQxolNCDgum7dOruP+ZYzAiQfZ8jK8YEQjuqbUobtQ+nsELjuuusu7BYQbTYm83/sQuBbLgiQfFzQKtG7KunIdYmSV8mkTJ06NbZbwIEDByqZlyokmuRThVIypFGGhIV44HM2swEoh0fS1VIx5WZsDgA6vkrycQSsLK9jFEutJLj+3ve+V5bkVTIdOp64p/OHANH1h63XkGHLUSsLWu077rjDa5x1D1zFU67rnuci80fyKRL9DHHLthCoJDI3BQtO6dIhgPPshXBUP11o/MoGAZKPDUolfQersdWD8MaNG1fSlJY/WeoGY0I+nKDpt9xIPn7x9Rr6VVddNbSoFItLoQHRpUMAx0oL6Yj/4IMPpguMX1khQGm1gqmcL2FeCpZUNIinMTeFJ5SmKyt1VjjIB5M4OdKVDkvbr0g+tkiV8D2cXCoaj7TW7CqkKyjBT4jnkkumpguIX1kjQPKxhqp8Lx458tvQ5qNWHByKR+eGwL59+4a6XLJbAHY0pPOLAMnHL77eQ1eJB9c9PT3e46xbBIsXLw7JR4gHi3Y/97nP1S2bpcsPyad0ReKWIHXnPSEiHnLnjqEQD7qxuMbCXDq/CJB8/OLrPXTsVCikI/6yZcu8x1unCMaOHRuuZle3KalT/sqaF5JPWUvGMl1nz54NR7yEeOCPGjXK8mu+dv/93x6argCNB/jRbtYZuSD5dAZnr7FMmTJlSPuR7sPJkye9xlmXwEE0qsYD8sGEQzr/CJB8/GPsPQaTwfSWW27xHm8dItCJB7PG6TqDAMmnMzh7jQVnc4nGIwZTHKlM1xoBaDjS1ZJuKwz4dJ1BgOTTGZy9x4JD8PRWfHBw0Hu8VY7g6quvHuquCvn09fVVOUuVSjvJp1LFlZxYLLVgK56Mj/7P3//+95ihHgRE1zkEiHbnsPYa0w9/+HCsFWdlSoYc0xFE2xGfXdVkvHz8Q/LxgWpBYUolUn2eWGouDBUjud68ebP5ZT71ggDJxwusxQRq2lp1+vTpxSSmxLHu3r07pvWAgOg6iwAR7yze3mPTTy3FZmM7d+70Hm+VIkD3SrQd8dnl6nwJknw6j7nXGLEaWyqUbK/KGbsR5DjnXvARH4T9u9/9LnqJVx1BgOTTEZg7F8nAwEBYuYR4ULFwaunhw4c7l4gSxwQiFtIRf/bs2SVOcX2TRvKpYdm+/vWvv7BeSXY5HBZgCUa3O5PWg27ptm3buh2aQvJP8ikEdr+Rfuc734mdOY5WHpWvm52+VSq0w4kTJ3YzJIXmneRTKPz+Ip82bVpsl8NuNqrGzzkbHmqH9957r79CYMgtESD5tISnun9+61vfitk2oP2sWrWqupnKkHJ15b/YwzgNIQOgOXxK8skBxLIGoVY4Ma7C7zaHwxQl/0I8MMR/+ctf7jYoSpXf7pPEUsHvNzFY7S6VTvX/5V/e6TfiEoV+8ODBIQzUAxavuOKKEqWyO5NC8ql5uetGVtl6Y8OG/6x5zhvZQ9cKxBtpPBeFtp5f/vKXXZH/MmeS5FPm0skhbTjTHRtkoQIK8WDrjQkTJuQQermDkOUmqsaD/Y4uu+yycie8S1JH8umCgl69enVIPKh46p4/dTa4YpEo7Dq6xoM5UHTlQIDkU45y8J6KMWNGNxGP2IBwRnndHI45biYemWw5PMApr3TlQIDkU45y8J4KGF5xRIyQjurXbfgddi69qwUNiGvcvIuZUwQkHye4qv3yjTfeaCQfEBGODK6Dw0RKvauFe57kWr7SJfmUr0y8psh0winIZ+TIkcGjjz7qNW7fgS9YsMCg8QwPCXfjxo2+o2f4jgiQfBwBq8PrsIeo3S7RFHp7JwZPPPFEJbOIiYSSDxjVYVzHPfIJjY+ufAiQfMpXJt5TpK5ziipswygLDahqp140E09kXAbx8Bwu7+KUOgKST2roqv0hzqwyGWVFI6rKqFDDxtNYJAqNTtV46jyVoNrS10g9yacOpZgyD9dee61x6w0hoLVr16YM2f9nGE5vjGoNCwlH72pB4zlz5oz/hDCG1AiQfFJDV48Pr7nmmtjWG0I+8OfOnVu6jKLb2JjHo2s8DeMyiAdTC+jKjQDJp9zl05HUmc6wUglo0qRJwZYtWzqSlnaRYESreQJhs3EZQ+p1mTbQDouq/0/yqXoJ5pT+pCF4dT0YjhcuymHTr97e3nD0SjeSw3YlZImV/HTVQIDkU41y6kgqsdRCKjF8lXhwLf9hdKlTbuvWreEEQYk7yUiOvYuqNkrXKQzLGg/Jp6wlU1C6YGRGt0aIB6NHKvEICaB7A7J6+umnvaQUdh1dG4s0nuauFgzPdNVDgORTvTLznuIf/ehHQU/POONCVCEf1X/DG94Q3HXXXcGLL76QKW3Y4F7ddVCNI67xNLpasAHRVRMBkk81yy2Wauzbg20kMJs3rwr59re/fairpRKBeq1qIzgf7I1vfGMwb968YMWKFWF6jh49GkvrX/7yl2DPnh8G69bdFcCOBA0HmpQarnqtxiHzeKCdYa5SVodFtYsXLw4++9nPVnZ2d1YMivqe5FMU8hniReWFAXb58uXheVxqRZXrH//4xxliiD5FN0zC1P2IFGRyX2T41d+Ve+nOqfsKyX8m3xQHulnHjh2LEpnhCsPyehyY5Q0CvfPOO4P9+/dnCJ2ftkKA5NMKnRL9B7K55JKpRvuLXmnRRVm5cmWuqde7Q/FuUGMdlZ4W9d6deJrn8Ywf3xPAFpSnc8kHpiSYNLk809NNYZF8SlzaWIn93ve+N1yflGT4VSs3rqUV97F3DSoewh05sqHp6LOK9bSo90I8rvlAHDjY77bbbsu9pL761a8aZ0er6davkQ8s6bj11luDU6dO5Z6mbgqQ5FOy0sbokew9LBXWvovSrCk8//zzXnJ39Oj/C7slDfuLj65WIx/oEn3+85/3kgcEOmfOnHBkL0s+MMTPgwfTFRHJJx1uuX+1a9euUKuAIRWtLYgHlcKeeOJrnGC38O1g9J0/f35YiXUtIU0+sMcy1pzt3fu/XpOOrUNcNbdW5QESquOWtD4LgeTjE12LsDG8DDVerbjuGo8QT9zwa5GE3F7Zvn17OFSuEigqeDsChYaDinv48OHc0tIuIGCeReNRy0u9Rt59dBHb5aeK/5N8Cio1LHyUSqoKrzvxNHe1YPNRw1u/fn1BOWxEe+7cueDEiRPBgQMHAhAtRo+OHDlSaJr+8Ic/XCCeZqxU3OQ6S3lAg6NLRoDkk4yNt38wr6QV8aBFhtBLBUjyxbjcqvuA7gBdMwKLF79vaJfDJGzxXIgnS3lgWgDmX9HFESD5xDHx9gRaSJKwi6C366LI9/Eh4mTDb39/v7c8VS3gX/ziFy23EBF88y4PjBJyf6FmaSH5NOPh7U6364iQw4egtzJmqu/i2kbjUb/h2qeoWGfPnp3YAAhmvsoDtq2q7BAZIebviuTjD9swZEyKg9CJYOu+ewubbFzWw5Z7xJHHUgTPUHkP/vvf/76xuys4we9EeRS5NYl3kB0iIPk4gOX6Koa6VcHWr90FvbVxWQ9fr0yu6a/b+yY7m4pZp8vj4YcfrhvETvkh+TjBZffyq6++Gs7ZUQVbvxZBz2LM1MPU7/U41q1bZ5eBEryV91YdrdaoATcdKx1L/d6162uKAxrxmjVrSoB2MUkg+eSMO+aq6IKq34ug+zAuS1ymOLATYB4OizoRD1a95zmSc+jQoXCxLMLGqvi8HDabz7frq2ugycb+VuUh/2HNWDc6kk+Opf7tb3+7pZBD2EAKPo3L7eLAbOQ8nJqPCRMmhNtiYFkIZmrbOsx1wuRCbFIvW6RKhRwYGLANpu17OEJHwtV9NR+41v/X79NqPO3KPK9yaQtGiV4g+eRUGFikmL9NIZ1xGRpVK60qjyxjhX2rOFBpsUcPhpjf9a53Be9+97tDksF3mCagV2r9Po80IgxMbNTDlnuQTTus5F34EfHEZ5Kr76nXLnH4WAycF44+wiH55IDqJz/5yUQBF0F0EcKGoOuqfX6zcfNY87Vt27ZQi5P8Jfnx+Ujt83HttR/OoVQaQSRtUlam8hDsgNW0adNyy3vZAyL5ZCyhz3zmM9YaTyeNyyLQSf6OHTsy5jwIWnVnEG+kKTTvuZyUJjwHKZw583LmtCGApCOBhHjKVB4qVt1CQCSfDGL+3e9+twMaT/suilSmdt0gqfRoYadOnZoh541PW3Vp4hqPXT6w9CQPhzVkpm5wGqwa9ho/Xa0GSeta7vCwu5oHDmUOg+STsnQwYa3VCIq04u0MjUIIDSEUG4+bppA2DmyIldVhq1E1D1nykUd3UPJj6m6BeNJihe+gneh51e/zjKPuRmiSj0irg495PCbhVgXRvYUV4vHZwsbjcMh24qvq0pGo++CWD5yWkZfr6+uLkURVykOVIVznOeUgL3zzCofkkwJJG43HbRRFV7vtWtg84sirdcUpEPGull0+8jwPfvfu3TkQT3HloZMP7qs0OdSlOpF8XNAKgmDRokUx4VYFRlpYqOm4Vv8zXUeagltXC8STRxywi2Cv6DzcN77xjfA0DdsuyqhRI3Pf6F7XSKtWHiYZQWP35JNP5lFEpQqD5ONQHDgTyyQc8kwE3cXwi4oKAmhUWDujbDaNxxyHAwxtX8UhgoJJkg+sdu7c2TYslxfQRVHjq3J5mPLhgkUV3iX5WJYSTm5QBUK/hqA3iMSvxuMrDhBrXq7dELxglVd8CAfdLXV0S+KwbwjEHuamgfoqD5EvNR84yaROjuRjWZqtKhQExE0bEUH3qfG4xYGK+9RTT1mi0fq1VjYxFau//vWvrQNy+Bc7NqoVturlgbyoWOEaz/I+t8wB4txfJflYQIq5JyLYum8SEP0d9T6tUdatMqUzmIJg83BqftVrHavBwcE8oguP8ZF49DjkeZJf5vIwlTlsWnVxJJ82JYmtHZJachF0qN64ThJweV60cVnSoftqPj71qU+1QaT933r4uFfjEKzyWDy6devWIdxNcZjSIs+qUB6ClaQZ/oIFC9oXQgXeIPm0KSRsQaoWvFyLoKN1MgmIvCd+vIU1G37lffhFxdEGkrZ/q3lolY88DtuT0a2isNLzqt77LPO9e/e2LYeyv0DyaVFC2HpUFSa5hqB30tBoR25i48luMM0y9wdH5QhO8FthtXr16hbot/9L7Dyt4lDTItdpNZ4ylTkmdlbdkXxalKBJ64Ggm/riIti6Hwl6eYzLSGO7fKSd2KaOCraLA/v/pHXYiN0mH3UpD1M+7rjjP9LCV4rvSD4JxbB8+fKmFjydoKcz/LqRm784EqBp+Rh2HFus0rbeOIDQNg610sa7QXYzsMtSHpIXNR8tC6Pkf5J8EgoIAq7+fvKTnwT79j0a/n72s581/ae+J9ePP/548Oijjfd/+tOfBj//+c/bflO2OBKgafvYNh/YyTCNwzautnHUqTyQF12u0uBXlm9IPmUpCaaDCHQZAiSfLitwZpcIlAWBypLPa6+9Fjz99Mnwd+LEieD06dMtf3/+85+DZ599Nnz/5MmTwfPPP5/4/pEjR8IuErpX0tV69NH/27bbhK4Vulj4Bl2uxx57rO03ZY8D+XHJx/79Pw1csGq8b48V3m/g253locsVuq7PPfdcTJZPnTqVuX74JqlKkY8YgduNoohhTnzVQIfhUoxAyX9JPuOQ0TlilSQj3SRXqHt5u0qQDw58k1nGQgp1mlWMPCUJuDyPhuzd5vFgpIZY2RMosUrGCnUQdTEvV3rykYlkqIRCPKhQdhVWH4Yu76xiIRmTH29hmQ8TTnhGrFofm6Tilhar6dPzOWGj1OSjbs8JskGrZE88+c34VQtMvU6rjTAf9l1fYlVOrC6//PLMClBpyUfdMdBd4xHiEbuFD02Bcbg3BCwPtfEyXUcNWvmxynrSSCnJB0fuSsG4E4/e1UruwzIOYmVPoMTKhBWOT0rrSkk+sqZKiIdGQHsCJVbEShpV3Y+0qvwGLbLsAVU68jl79mxO63Z8dLX01o9x6AIu92mNmWhdTS2shKv6jKMcWNVG81m/fn3LbRhU4ZPrtIxOY2Y5jZnQeKVsk3yWuQvxiH3STeOxrR/9/f2p+Kd0ms/HPvaxrtiyQq9UUWUqv6FRT7t6z3ykIYVql/lNN91UD/L54Ac/mEHttu/vp1ftGYdKNup1vBtErFR81Os6YbV06dJ6kM/KlSstJxCmUyVBOjTK2pMCsSJWKmmq16Ll3nrrrfUgn02bNln092n4Ta+50UiuViD1Oq6NECsVH/VaxSrt4Y+ls/mAQtVM6tfCtqLB4F5/R7+HAdPWeIZvGUcau4UfYybLo/yym0rtQT1P+6HP73TykPuIFKptoGM+0pAby1zqQZJflFyl5YJSko+6pkuAVtU8aDEAWv5L8mWSYvouCuNIwpbl4UKgupmgPnI1d+7ctNxTTs1nzZo1TcQSMbqbai9dM5/zRhiHW0NAA7Y98VQBK5wiktaVUvM5dOjQEPnEW1gaAe21EWJFrOJkl71HEMkVdv1M60pJPsgMNi5Kq/HQuGyvjRArYpVE0Hjeqg5mPTe+tOQzY8aMCyNUNDS2Eo5mASFWxCqu6Qgm7hqPzKUzy1Xac9dEUyot+SxYcE0wYoRkOhnQ9MDW1wgomCT57kJIrDhoEa+DCxYsEB5J5ZeWfGB0RpfAZVSrCga6JELAcyEF5iMu6DpuxKr4wZcsxmawVWnJ57e//W24H68udPq9CGH6likynulhyz3jEA2UWIlM6H43DozguKosrrTkEzLjsNYtIEiBBlN77ZBYESudNNX7VsZl9T1cwySS1ZWafEyTDQUEd22ktfFMwlV9xuFT42F52Gvr5cNq5syZWbmnvN0u5Kyvr29ovk82UqDB1F7QiRWxat3jQF28/fbb600+27dvj5GPaCM0yrYXEGJVvFHW1GjWQXa3bdtWb/I5f/58E/lIZUrfMtFgqlYG9bobDaaSf8qVe/cadTOrK7XNB5lTBYQGUxpMRR5MvovBVL4H8VCu3OUqK/GEdTuPQHyGASFxb5nKZ6BjPrAK3L2FtddyWeadwmrUqFG5VPnSaz5Ll/6b44byNJjaCyGxIlb2tkPBasWKFd1BPtiisQ4GOhQc82Ev6MSqvFjt27evO8gHuUS3S/roST4Nplk2t6IhnnIVJzuTuSOPyYXCXKXvdiGhrSYbQmhoaHQhHrGNuA1D0yjrbpS1azSrVR55TC6sFPksWbIkUfOJiIfGzKTWW54TqzQkTbkS+YG/bNky4Y7MfiU0H6yeVQGQ63hXK646yrvim1RJ+c/kMw6XCksDthhlTbKkPquqXHTOoM8AABAkSURBVOE487xcJchncHAwRj5RK+7WfaDh1777QKyIlUqYuD569Ghe3FPutV1qLlUQ4q0GDaYqPuo1scqiuVGuVFnCdZ4u39DyTJkWFvZ0RubTajw0mNq34sSKWOmkg3vUwTxdZchn0aJFCvHQCGgSDvVZRNLESsXFdE2s7LRDDPzk6SpDPg888MCFNThSmWhcNlUkPIt3tYgVsYrLgOvgy44dO/LknurYfF544YVwmQW6BGipkoRJnguweN/nfAsaZVkeInMmP9Kqqj0wMnLkyODll1/uTvJBridPnsx9nVtsLRvXeGgwNRECnhEru66WYDV16tRciQeBVabbhcTOnj3bSuOhwdReGyFWxCqJoBvE05iBneVM9iTWqhT5LF68uCX5SFfLfqKXTG0XO5IPTYFxsDyqL1dLly5N4pDUzytFPrt27UokH3fi4Wxce1IgVt2O1SOPPJKaZJI+rBT5IBMmFVGIh8ZlGuJN8qF2H0AikBMOWiTLislInkQgWZ5XjnxksqEImRBP+pbJh0qsawqMQ8pL92n4dTP8Nmx0Ps0Ecdnt6enJwjGJ31aOfDDZUAQYxEODqX0rTqyIldQdk2/SePBe3pMLhY0qRz6ywt1d46Hh1147JFbEKtLW+/v7hS9y9StHPocOHUqxobyuSib3d6VFcCc3xmFfYYlVlbA6cuRIrqQjgVWOfJBwFBy6ECAIIYskP0mVTHofz4V4GIc9SROr+mIlZJG3X1nysSMevYWNVMkk8hHiSd8yMY4kbGlcLr9x2VR2eZOOhFdJ8nnTm97kTeOhUZZGWVMFlGdpNemqyhX2T/flKkk+a9eubUk+kYD4HJKkUdZeOyRWVcUKAzy+XCXJ5/Tp04nkE1ft7fvi9gKid+cYh2gGus/yyNLVKl6uzp4964t7qrWwVEUBE5/igi4tLGex6tjo95F2SKx0bPT7bsXK1+RCqceV1HyQ+Pnz5zeRT7yFpeFXr0RyT6yyaCPdI1dXX3218IQXv7Lks2rVqiHySdsyVdUIKCQCH6NzzAeN5KpM6Ndp68fKlSu9kI4EWlny2bhxY0g+EbA0LutCp98XgdXYsWODD3zgA8EnPvGJ8Pf+978/3IhcTZv79AbpXrPMVRxN11nKHHXMp6ss+QCUePeheAMdBMC9MtXPgD1+/Pigr68vePbZZ4PXXnst/KHMcP3MM88EN998c3DxxRcTqxFCoOWTXZ/Eg7ArTT7S3YAPhjcxv/pMSAHv41r9z3QdtRo0yprwUZ+pWGG/3y984QvBmTNnhkhHiEf8l156KbjrrrsCvMvyKKfsknxaIIAJUA3i6R4joBBo+mkB/rFauHBh8M9//nOIeHTNB/fnzp0LQED/+q8LLBsCXTv0nw9o1irBmq6rUB5p8jFz5swWNS+fvyqt+dxxx39YazwgKfsKKzYFN42HcVwUjBs3Lti5c2eMeISAhHgwfwS/LVu2hN0vU8WWZ6pW1Whs7DQFlod9j0DHat26dfkwTItQKk0+jz32mIeWSYhH+uI+Wr/6xvHWt741+M1vfjNEPiJ7Qj7QeIR4/vGPfwS//vWvA2iwQjS6HxEPy0PHRr/PE6uDBw9K0XnzK00+QEXf2VAtkOwqsV0LC43KXqvSuw/1iuOqq64K/vjHP4YCC8KBE+IB2QjxgITw/Omnnw7mzJljJB8OKBQjV74nF4ZCUXWDMzIxffp0o+AK8UCdxLVKSqbrqNVw62qBdBhHRKCXX355cPTo0SbSAcmoGo8QD54/9dRTAewLepmwPIqTK5+LSYV44Fde89FnOkOIhXjSayM+ulq6xlPPOCZOnBjs2bOniXySiAcvDQwMBBiWV8knrvHUEys1z3JdBtlFneqEqzz5rFmzpklwUXi68UwK1uSnbWEZR7Ix87rrrgteeeWVsFuVRDzQejAi9uEPf7ip/FgeLl0tsR26aevtZLcTxmaQW+XJZ3BwcEh43VsNKTwaM03ErD6LSKE9ViNGjAj+53/+O1BtPLgG4Yh79dVXg4ceeihsKCQelzjkG5Z5+/JwxerYsWNSTF79ypMP0AG47kKod4Miu4UUlu4zDhH09lhNnDghnGh44sSJ0N4jxAP/T3/6U3DPPfcE6s4E8a5W+zhYHvbl4YKVV8ZRAq8F+bz5zW/mvs4lnOWNdV2wH0CNf/DBB4MHHnggnNWMZ6NGjRrSWCONx637QGN/ctdXbTiFeGwGRjoxuVD4pxbkc8MNN2QY6qYxUxVU9TqujRArFR/1ui5YYc1dp1wtyGfz5s1eh9PbGeiahVDsSG6tOOOwb8WJlT+stm3b1inuqb7BGUidOnVqSIVXiUC9jlR76Sf7aMWFeBiHir3pmuWRZlTLv1ydPfs3ko8rAiYBl2dxlZjGTMFG94mVCynUb9DCtd5leb8W3S4AgOFdvSLhPmph3bpBNGbaq/bEqh5YjR49OguXOH9bG/LBNg46+cRbcR9dLb31Yxx6Ocg9yyOLVuVfrj70oQ85E0iWD2pDPrt3724in7QaD42Z9q04saoXVnv37s3CJc7f1oZ8kPOohaXh135dG7EiVg2typk9Mn5QK/LBCve4ak/jspCy7hOrLN2geslVp1ayq3xVK/LByQjSFYCPrpde4fR7l9mf+DZtd45GWZaHLnvqfdFytWzZMpUXOnJdK/L59Kc/HY56NYjHv4EOmoMqQKZrITd71Z4GbGLVebnyeSZ7EpPVinwOHDgQaj62Go9oSSAIE3Goz9K2TIzDXuMhVsVhJRvAJRGFj+e1Ih8A5EcboVHWXhshVlXEyge5tAuzduTTak9naDLZu0H2diR7IdS7WoxD1TrVaxrJ8zeSo84U4WpHPosWLUrsQgnxQL332dUC6TAOewIlVsVitWTJkiK4px4LS1Xk5Ax3tbXMR+PpvBFQzwPzgVbf5+JKXQPtjjLfunWrWoU6dl07zQdH9OqVFloOjZnFGTNZHg3NpoyDFiBznBxbhKsd+QDE3t7eIQKSrpa9/YUGU2LlQ+Mpp1xNmjSpCN4J46wl+cyaNSskH3fi0dVu+764fYVlHMSqPHI1d+5ckk+eCCxevHhoVIvGTHtBJ1bdh9XSpUvzrHpOYdVS89m0aVO4p3P6FtaH2q1rPIxDtwXJfXw4nVgJNrqfFSscX1SUqyX5AEx74pG+uNtmYzRg04CtE4F6X0bjMtKnD74URTyIt7bkox7NogqFeh0JiM/hWyE3xqFib7pmebhMIMwuV0VNLhTCqy35tJpsCMGPq6v2/X17rUrvajEOE+mwPF6X0UyQTq5gGy3S1ZZ8sEo3WdCl1XDraoF0aJS1F3RiVW6s+vv7i+Se+na7sMLdRD5xjYfGTBNOZm2EWNUJq0OHDpF8fCGgC0pkU3DTeGhcpnFZlyX1vqpy5ave2YZb224XADALCA2/Ki6m66gyESsTPuqzKmNlSxK+3qs1+UyZMiUkoHhXy74vTuMysVLJRr2uslxhv/OiXa3JZ82aNdxzmUZy7uU9LN6ArFu3rmjuqa/BGcgeP378wmp2n90HfTidRllVO1Cv45oCsVLxUa99Y3X69GmSj28EenrGhQSEvrlauKZrffan6R31WdTfpwFbxcV0TazSTCD0I1c9PT2+q51V+LXudgGBefP+D/d1NqjdQhARKfjUDmVeFeMQ3JP8TpTHO97xDity8P1S7cnnox/9qJXGA8Myjct22iGxsp96UEasVq5c6ZtXrMKvPfncd999LclH9vzhbFx74iFW1cYKWw2XwdWefM6fP59IPkI86TUeGkyTuw80xJdVrspAPEhD7cknzKTB5kHjsh9jJsgoslswjiRyludFYEXy6SACMtlQCtxd46HB1L4VJ1ZlxmrGjBkdrHmto+oKzQeTDdMTj959sO/v2wsh4yBWnZGrMkwuFErqCvLZv39/SD6i8dBgai/oxKpeWB08eFDqfuF+V5APUB47dmzGDZtoXBbtUfd9z8ZFfIwjy1SQhuwWvXOhznZdQz6XXnqpwzwesVvQYKoTjX5fhMEUcerp0O85oBCXXdSBMrmuIZ958+Y5ns/O2bh6hdbvI+IhVjo2+n0ZsJo/f36ZuKc7htqB+O233962tYyr9nYtLIylNJgSK51w5L4scrV27VqSTxEIYMtIEQaTH7VMcXXV9D6e0YBNrJJkQ56XSa6OHj1aRNVLjLNrul1AQARC9+MtE43LOkZyT6yyaLnFylUiCxT0R1eRD7YSkEokftqWCUPQ9l0tGrCJlV231JdcYaJt2VxXkQ+s/UI68CPiocFUxcV0TazSNDblkatZs2aVjXu6x+AM5FesWDFEPvHug13LRONytbeTaGgWQgrdU+Yf+ci/k3yKRGDz5s0h+UStOA2mJi1HfUasGjKCwQUVF9N1mbHasmVLkVXPGHdXdbuAQFzjKdYIKEIsI2f2thF9PRjzIVjqPsv8ImPlL/ph15HPggULQkMx1G+0VLqg6vecKeumHfoymEq5sDzcy6PoM9mTSK7ryAdATJ48mfs6G/Y4kgoedR/ENuJDq5IRQMYhuCf5WcqjjKNcQkZdST6HDx8ORowY0VLryd4NstOqaMC210CJlRtWWEh64sQJqeul87uSfFAKu3fvDkzzftD6CPGgC4HrpBZJnkctk5tKjMrEOOxJmljZYzVx4sTg4YcfLh3hqAnqWvIBCC+++GKAY2OFRFTioeHXR1eLRvJOyBXms7300ktqPS/ldVeTj5QIhuBhiB41atSFE079ajw0ytp3H4iVHVaQ3YULFwZlOZlC6lYrn+SjoXPgwIHg/vvvDzZs2BD09/cn/r7yla8E99xzT7B+/frQx32r9/Hfl770pWD9+sY3uG73PuMgVq3kCjIKsnnyySc1Ka7GLcmnGuXEVBKB2iFA8qldkTJDRKAaCJB8qlFOTCURqB0CtSefY8eOBXPnzg0w2QpD6/KbMGFCgOHI3t6JAa7leZI/fnzPhfd7Q3/8+PFtv2EcxCpJnuR5J+UKdWDOnDnB8ePHS0FktSafgYGBABOt1KH0dMPpnI1rP0RMrMqOFerEnj17CiegWpOPTjrpiEefm2I/0cteCBkHseq8XBXNPrUlHxyOppMPZy5zBrYuE/p9N81WHxwcLJR/aks+W7dubSIfIZ70LSxn/OoVVe65ZYXLLoe6llucXG3fvp3k4wMBVfMB8XCmrN1MWWLlph1WWa5wokuRrraaD0BFy+yu8dBgaq8dEqsqY1Uk8YT1s+gE+Iz/oYceCnp6xjmcMqGrxJ03AkpXRvXdCZT5sCeF7sMKo10YCS7a1VrzAbhQLa+88sqgt7e35bwczNsZN25c+A7m/2D+hczFSPLHjh0bkhvet5srxDiIVXFyhTqAOW9lOTyw9uRTNLszfiJABMwIkHzMuPApESACnhEg+XgGmMETASJgRoDkY8aFT4kAEfCMAMnHM8AMnggQATMCJB8zLnxKBIiAZwRIPp4BZvBEgAiYESD5mHHhUyJABDwjQPLxDDCDJwJEwIwAyceMC58SASLgGYH/D+qA+97b6G4+AAAAAElFTkSuQmCC;" parent="D0Ue_TvP8GF1oFJSITFM-30" vertex="1">
          <mxGeometry width="287" height="309" as="geometry" />
        </mxCell>
        <mxCell id="D0Ue_TvP8GF1oFJSITFM-4" value="&lt;font face=&quot;Courier New&quot; size=&quot;1&quot;&gt;&lt;b style=&quot;font-size: 28px&quot;&gt;USER (ADMIN)&lt;/b&gt;&lt;/font&gt;" style="rounded=1;whiteSpace=wrap;html=1;fillColor=#f8cecc;strokeColor=#b85450;" parent="D0Ue_TvP8GF1oFJSITFM-30" vertex="1">
          <mxGeometry x="70" y="350" width="166.5" height="80" as="geometry" />
        </mxCell>
        <mxCell id="D0Ue_TvP8GF1oFJSITFM-32" value="" style="group;" parent="1" vertex="1" connectable="0">
          <mxGeometry x="3180" y="460" width="260" height="2490" as="geometry" />
        </mxCell>
        <mxCell id="D0Ue_TvP8GF1oFJSITFM-33" value="&lt;font face=&quot;Courier New&quot;&gt;&lt;span style=&quot;font-size: 36px&quot;&gt;&lt;b&gt;NOTICE BOARD&lt;/b&gt;&lt;/span&gt;&lt;/font&gt;" style="rounded=1;whiteSpace=wrap;html=1;strokeColor=#006EAF;fillColor=#1ba1e2;fontColor=#ffffff;" parent="D0Ue_TvP8GF1oFJSITFM-32" vertex="1">
          <mxGeometry width="260" height="120.48387096774195" as="geometry" />
        </mxCell>
        <mxCell id="D0Ue_TvP8GF1oFJSITFM-34" value="" style="endArrow=none;html=1;strokeWidth=8;strokeColor=#666666;" parent="D0Ue_TvP8GF1oFJSITFM-32" target="D0Ue_TvP8GF1oFJSITFM-33" edge="1">
          <mxGeometry width="50" height="50" relative="1" as="geometry">
            <mxPoint x="130" y="2490.0000000000005" as="sourcePoint" />
            <mxPoint x="130" y="134.5945945945946" as="targetPoint" />
          </mxGeometry>
        </mxCell>
        <mxCell id="D0Ue_TvP8GF1oFJSITFM-35" value="" style="group" parent="1" vertex="1" connectable="0">
          <mxGeometry x="3520" y="460" width="260" height="2480" as="geometry" />
        </mxCell>
        <mxCell id="D0Ue_TvP8GF1oFJSITFM-36" value="&lt;font face=&quot;Courier New&quot;&gt;&lt;span style=&quot;font-size: 36px&quot;&gt;&lt;b&gt;FEE PAYMENT&lt;/b&gt;&lt;/span&gt;&lt;/font&gt;" style="rounded=1;whiteSpace=wrap;html=1;fillColor=#6d8764;strokeColor=#3A5431;fontColor=#ffffff;" parent="D0Ue_TvP8GF1oFJSITFM-35" vertex="1">
          <mxGeometry width="260" height="107.24324324324324" as="geometry" />
        </mxCell>
        <mxCell id="D0Ue_TvP8GF1oFJSITFM-37" value="" style="endArrow=none;html=1;strokeWidth=8;strokeColor=#666666;" parent="D0Ue_TvP8GF1oFJSITFM-35" target="D0Ue_TvP8GF1oFJSITFM-36" edge="1">
          <mxGeometry width="50" height="50" relative="1" as="geometry">
            <mxPoint x="130" y="2480" as="sourcePoint" />
            <mxPoint x="130" y="134.05405405405406" as="targetPoint" />
          </mxGeometry>
        </mxCell>
        <mxCell id="D0Ue_TvP8GF1oFJSITFM-38" value="" style="group" parent="1" vertex="1" connectable="0">
          <mxGeometry x="3870" y="460" width="260" height="2480" as="geometry" />
        </mxCell>
        <mxCell id="D0Ue_TvP8GF1oFJSITFM-39" value="&lt;font face=&quot;Courier New&quot;&gt;&lt;span style=&quot;font-size: 36px&quot;&gt;&lt;b&gt;ATTENDENCE&lt;/b&gt;&lt;/span&gt;&lt;/font&gt;" style="rounded=1;whiteSpace=wrap;html=1;fillColor=#ffff88;strokeColor=#36393d;" parent="D0Ue_TvP8GF1oFJSITFM-38" vertex="1">
          <mxGeometry width="260" height="107.24324324324324" as="geometry" />
        </mxCell>
        <mxCell id="D0Ue_TvP8GF1oFJSITFM-40" value="" style="endArrow=none;html=1;strokeWidth=8;strokeColor=#666666;" parent="D0Ue_TvP8GF1oFJSITFM-38" target="D0Ue_TvP8GF1oFJSITFM-39" edge="1">
          <mxGeometry width="50" height="50" relative="1" as="geometry">
            <mxPoint x="130" y="2480" as="sourcePoint" />
            <mxPoint x="130" y="134.05405405405406" as="targetPoint" />
          </mxGeometry>
        </mxCell>
        <mxCell id="D0Ue_TvP8GF1oFJSITFM-41" value="" style="group" parent="1" vertex="1" connectable="0">
          <mxGeometry x="4190" y="460" width="260" height="2480" as="geometry" />
        </mxCell>
        <mxCell id="D0Ue_TvP8GF1oFJSITFM-42" value="&lt;font face=&quot;Courier New&quot;&gt;&lt;span style=&quot;font-size: 36px&quot;&gt;&lt;b&gt;ADMISSION&lt;/b&gt;&lt;/span&gt;&lt;/font&gt;" style="rounded=1;whiteSpace=wrap;html=1;fillColor=#bac8d3;strokeColor=#23445d;" parent="D0Ue_TvP8GF1oFJSITFM-41" vertex="1">
          <mxGeometry width="260" height="107.24324324324323" as="geometry" />
        </mxCell>
        <mxCell id="D0Ue_TvP8GF1oFJSITFM-43" value="" style="endArrow=none;html=1;strokeWidth=8;strokeColor=#666666;" parent="D0Ue_TvP8GF1oFJSITFM-41" target="D0Ue_TvP8GF1oFJSITFM-42" edge="1">
          <mxGeometry width="50" height="50" relative="1" as="geometry">
            <mxPoint x="130" y="2480" as="sourcePoint" />
            <mxPoint x="130" y="134.05405405405403" as="targetPoint" />
          </mxGeometry>
        </mxCell>
      </root>
    </mxGraphModel>
  </diagram>
</mxfile>
